<?xml version="1.0" encoding="utf-8"?>
<!-- Generator: Adobe Illustrator 16.0.1, SVG Export Plug-In . SVG Version: 6.00 Build 0)  -->
<!DOCTYPE svg PUBLIC "-//W3C//DTD SVG 1.1//EN" "http://www.w3.org/Graphics/SVG/1.1/DTD/svg11.dtd">
<svg version="1.1" id="Layer_1" xmlns="http://www.w3.org/2000/svg" xmlns:xlink="http://www.w3.org/1999/xlink" x="0px" y="0px"
	 width="1201.7px" height="1092.75px" viewBox="0 0 1201.7 1092.75" enable-background="new 0 0 1201.7 1092.75"
	 xml:space="preserve">
<g>
	<defs>
		<path id="SVGID_1_" d="M196.607,620.651c-1.795,0.375-2.924,2.122-2.553,3.901l2.312,11.057c0.371,1.78,2.106,2.927,3.901,2.552
			l45.986-9.61l-3.979-17.446L196.607,620.651z"/>
	</defs>
	<clipPath id="SVGID_2_">
		<use xlink:href="#SVGID_1_"  overflow="visible"/>
	</clipPath>
	
		<linearGradient id="SVGID_3_" gradientUnits="userSpaceOnUse" x1="-0.0161" y1="1092.7529" x2="0.9839" y2="1092.7529" gradientTransform="matrix(163.0614 0 0 -163.0614 196.6317 178810.7188)">
		<stop  offset="0" style="stop-color:#4AB16C"/>
		<stop  offset="1" style="stop-color:#009985"/>
	</linearGradient>
	<rect x="193.683" y="611.104" clip-path="url(#SVGID_2_)" fill="url(#SVGID_3_)" width="52.57" height="27.432"/>
</g>
<g>
	<defs>
		<path id="SVGID_4_" d="M210.459,647.688c-2.547,0.531-4.049,3.172-3.201,5.638l45.977,134.046
			c0.716,2.057,2.844,3.273,4.971,2.829l23.78-4.971l-33.195-145.554L210.459,647.688z"/>
	</defs>
	<clipPath id="SVGID_5_">
		<use xlink:href="#SVGID_4_"  overflow="visible"/>
	</clipPath>
	
		<linearGradient id="SVGID_6_" gradientUnits="userSpaceOnUse" x1="-0.0161" y1="1092.7539" x2="0.9829" y2="1092.7539" gradientTransform="matrix(158.6332 0 0 -158.6332 209.5836 174062.0781)">
		<stop  offset="0" style="stop-color:#4AB16C"/>
		<stop  offset="1" style="stop-color:#009985"/>
	</linearGradient>
	<rect x="206.41" y="639.676" clip-path="url(#SVGID_5_)" fill="url(#SVGID_6_)" width="75.576" height="150.969"/>
</g>
<g>
	<defs>
		<path id="SVGID_7_" d="M564.673,326.95c-3.453,0.119-6.918,0.168-10.361,0.503l-5.177,0.409c-1.725,0.143-3.459,0.239-5.172,0.486
			l-10.323,1.279l-10.266,1.74c-27.287,5.175-53.927,14.561-78.516,27.953c-12.279,6.703-24.177,14.217-35.276,22.816
			c-11.13,8.541-21.806,17.777-31.489,28.013c-19.6,20.243-35.928,43.711-48.465,69.08c-3.049,6.159-5.85,12.438-8.414,18.814
			l-98.127,9.831c-3.148,0.315-5.408,3.106-5.094,6.228l1.944,19.398c0.312,3.123,3.079,5.41,6.228,5.095l84.42-8.459
			c-0.932,3.53-1.793,7.077-2.586,10.641l-67.019,6.714c-0.91,0.092-1.427,0.637-1.654,0.954c-0.229,0.318-0.581,0.984-0.376,1.881
			l13.382,58.677l3.979,17.444l2.537,11.126l33.195,145.553l1.289,5.648c0.261,1.128,1.332,1.899,2.492,1.794l73.179-7.333
			c3.604,4.214,7.344,8.313,11.249,12.258c19.857,20.474,42.949,37.793,68.059,51.29c12.611,6.646,25.672,12.417,39.093,17.199
			c13.47,4.638,27.251,8.334,41.236,10.973l10.524,1.766c3.52,0.504,7.06,0.87,10.588,1.306c3.524,0.493,7.078,0.666,10.623,0.932
			l5.318,0.377c1.771,0.148,3.552,0.114,5.328,0.181c14.207,0.584,28.446-0.23,42.532-1.948c7.063-0.74,14.039-2.093,21.021-3.331
			l10.385-2.332l2.592-0.594l2.563-0.71l5.121-1.434c13.617-3.923,27.01-8.688,39.818-14.722c1.604-0.743,3.246-1.408,4.82-2.215
			l4.727-2.409l4.719-2.42c0.783-0.408,1.576-0.798,2.352-1.222l2.295-1.328l9.17-5.312c2.996-1.869,5.938-3.825,8.904-5.735
			c1.467-0.98,2.988-1.876,4.406-2.927l4.289-3.099l4.285-3.098l2.141-1.552l2.076-1.635c2.773-2.176,5.551-4.341,8.209-6.655
			l4.027-3.42l3.918-3.54c10.424-9.467,20.141-19.694,28.914-30.668l3.283-4.117l3.156-4.213c2.137-2.784,4.111-5.687,6.119-8.559
			c2.018-2.867,3.861-5.853,5.795-8.771c1.809-3.002,3.689-5.956,5.396-9.014c13.9-24.304,24.086-50.621,29.918-77.787
			c2.861-13.594,4.76-27.356,5.584-41.157c0.691-13.811,0.457-27.637-0.938-41.319c0.209,13.752-0.43,27.473-2.139,41.041
			c-1.693,13.566-4.377,26.972-8.006,40.082c-3.701,13.091-8.268,25.905-13.75,38.29c-5.494,12.382-11.986,24.284-19.25,35.646
			c-7.232,11.387-15.398,22.143-24.246,32.258c-2.164,2.569-4.52,4.971-6.777,7.456c-2.293,2.451-4.686,4.81-7.033,7.202
			c-4.832,4.657-9.74,9.234-14.893,13.522l-3.852,3.227l-3.951,3.106c-2.609,2.101-5.326,4.061-8.018,6.049l-2.02,1.49l-2.082,1.404
			l-4.16,2.809l-4.154,2.808c-1.375,0.953-2.85,1.752-4.266,2.638c-2.869,1.715-5.707,3.479-8.592,5.157l-8.826,4.738l-2.203,1.187
			c-0.744,0.377-1.506,0.72-2.258,1.08l-4.52,2.146l-4.514,2.157c-1.5,0.723-3.066,1.305-4.596,1.964
			c-12.207,5.37-24.916,9.506-37.781,12.853l-4.836,1.219l-2.416,0.614l-2.441,0.506l-9.771,1.986
			c-6.568,1.016-13.117,2.16-19.742,2.71l-4.953,0.517c-1.65,0.182-3.314,0.205-4.969,0.315l-4.972,0.275
			c-1.658,0.07-3.311,0.238-4.972,0.208l-9.954,0.077c-1.659,0.058-3.316-0.092-4.973-0.129l-4.972-0.189
			c-1.655-0.085-3.317-0.071-4.967-0.238l-4.956-0.428c-3.303-0.296-6.614-0.499-9.892-1.012c-3.283-0.46-6.576-0.843-9.848-1.359
			l-9.778-1.792c-12.976-2.685-25.766-6.209-38.248-10.627c-12.433-4.559-24.51-10.028-36.155-16.293
			c-23.217-12.655-44.592-28.716-62.933-47.764c-36.935-37.887-62.197-87.027-71.026-139.29c-1.253-6.507-1.914-13.104-2.698-19.686
			l-0.728-9.915c-0.155-1.652-0.188-3.31-0.222-4.968l-0.125-4.971c-0.035-1.657-0.1-3.316-0.113-4.975l0.114-4.974l0.112-4.975
			l0.055-2.489l0.169-2.482l0.671-9.936l1.146-9.896c1.768-13.165,4.434-26.218,8.054-39.026
			c3.722-12.776,8.344-25.295,13.83-37.447l4.333-9.016c0.684-1.522,1.558-2.944,2.325-4.426l2.372-4.405
			c0.809-1.459,1.543-2.963,2.411-4.388l2.587-4.285c1.752-2.841,3.372-5.77,5.303-8.497l5.601-8.315l6.006-8.033l1.501-2.011
			c0.507-0.666,1.061-1.294,1.588-1.942l3.193-3.872l3.192-3.879c1.058-1.299,2.237-2.491,3.349-3.742
			c8.824-10.099,18.703-19.241,28.997-27.876c10.257-8.71,21.383-16.377,32.892-23.392c11.523-7,23.553-13.268,36.094-18.378
			c12.515-5.177,25.444-9.379,38.619-12.763l9.939-2.332l10.044-1.886c1.671-0.349,3.364-0.548,5.051-0.795l5.068-0.719
			c3.374-0.551,6.779-0.79,10.178-1.149c13.604-1.363,27.338-1.639,41.08-1.059c-11.265-1.463-22.651-2.131-34.06-2.131
			C569.483,326.862,567.079,326.893,564.673,326.95"/>
	</defs>
	<clipPath id="SVGID_8_">
		<use xlink:href="#SVGID_7_"  overflow="visible"/>
	</clipPath>
	
		<linearGradient id="SVGID_9_" gradientUnits="userSpaceOnUse" x1="-0.0054" y1="1092.75" x2="0.9956" y2="1092.75" gradientTransform="matrix(635.9688 0 0 -635.9688 220.7134 695558.6875)">
		<stop  offset="0" style="stop-color:#4AB16C"/>
		<stop  offset="1" style="stop-color:#009985"/>
	</linearGradient>
	<rect x="217.679" y="326.862" clip-path="url(#SVGID_8_)" fill="url(#SVGID_9_)" width="636.569" height="553.237"/>
</g>
<g>
	<defs>
		<path id="SVGID_10_" d="M846.588,452.774c-11.184,2.219-21.607,5.384-30.92,8.841c4.73,8.016,9.006,16.196,12.824,24.509
			c14.955,0.479,31.191,1.534,47.354,3.54c28.443,3.347,56.65,10.181,76.061,19.587c4.873,2.267,9.15,4.733,12.852,7.028
			c3.662,2.376,6.738,4.593,9.104,6.646c2.502,1.873,4.107,3.763,5.336,4.886c1.189,1.167,1.824,1.79,1.824,1.79
			s-0.67-0.587-1.926-1.684c-1.293-1.052-2.984-2.831-5.58-4.551c-2.457-1.898-5.631-3.918-9.377-6.053
			c-3.785-2.056-8.129-4.241-13.055-6.196c-19.615-8.152-47.684-13.271-75.852-14.96c-14.557-0.966-29.135-1.15-42.744-0.895
			c9.35,22.501,15.473,45.859,18.469,69.44c28.984,10.859,55.484,10.41,76.441,6.25c40.211-7.983,66.75-30.742,67.857-31.714
			l5.701-4.95c1.633-1.418,2.01-3.803,0.895-5.655l-3.674-6.098c-34.551-57.294-80.031-73.021-119.527-73.023
			C867.338,449.511,856.521,450.801,846.588,452.774"/>
	</defs>
	<clipPath id="SVGID_11_">
		<use xlink:href="#SVGID_10_"  overflow="visible"/>
	</clipPath>
	
		<linearGradient id="SVGID_12_" gradientUnits="userSpaceOnUse" x1="-0.0112" y1="1092.748" x2="0.9888" y2="1092.748" gradientTransform="matrix(235.6758 0 0 -235.6758 769.3971 258046.9844)">
		<stop  offset="0" style="stop-color:#4AB16C"/>
		<stop  offset="1" style="stop-color:#009985"/>
	</linearGradient>
	<rect x="815.668" y="449.511" clip-path="url(#SVGID_11_)" fill="url(#SVGID_12_)" width="187.299" height="126.05"/>
</g>
<g>
	<defs>
		<path id="SVGID_13_" d="M655.939,213.278l-4.85,5.787c-0.951,1.123-23.246,28.055-30.529,68.399
			c-2.277,12.617-3.182,27.21-1.088,43.084c26.82,3.754,53.066,11.516,77.789,23.108c-0.252-5.088-0.582-10.214-1.01-15.335
			c-2.18-28.135-7.785-56.111-16.279-75.58c-2.037-4.89-4.299-9.196-6.42-12.945c-2.201-3.709-4.275-6.846-6.217-9.269
			c-1.766-2.568-3.572-4.227-4.646-5.501c-1.119-1.237-1.717-1.896-1.717-1.896s0.633,0.623,1.82,1.792
			c1.145,1.21,3.063,2.78,4.979,5.25c2.094,2.33,4.363,5.367,6.803,8.988c2.359,3.66,4.9,7.891,7.25,12.727
			c9.744,19.243,17.066,47.325,20.908,75.708c0.943,6.644,1.719,13.302,2.363,19.884c11.285,5.741,22.225,12.294,32.713,19.663
			c0.861-3.557,1.643-7.203,2.318-10.936c8.082-44.768,2.08-107.193-72.389-150.354l-6.162-3.566
			c-0.695-0.404-1.465-0.599-2.225-0.599C658.07,211.688,656.811,212.239,655.939,213.278"/>
	</defs>
	<clipPath id="SVGID_14_">
		<use xlink:href="#SVGID_13_"  overflow="visible"/>
	</clipPath>
	
		<linearGradient id="SVGID_15_" gradientUnits="userSpaceOnUse" x1="-0.021" y1="1092.7559" x2="0.979" y2="1092.7559" gradientTransform="matrix(124.5586 0 0 -124.5586 620.8788 136406.5625)">
		<stop  offset="0" style="stop-color:#4AB16C"/>
		<stop  offset="1" style="stop-color:#009985"/>
	</linearGradient>
	<rect x="617.379" y="211.688" clip-path="url(#SVGID_14_)" fill="url(#SVGID_15_)" width="130.83" height="165.455"/>
</g>
<g>
	<defs>
		<path id="SVGID_16_" d="M759.49,360.604c-4.289,8.394-7.752,16.786-10.553,24.783c6.803,5.323,13.377,11.023,19.721,17.06
			c10.979-13.407,23.939-28.149,37.916-41.945c20.256-20.251,43.1-38.152,62.51-47.555c4.799-2.422,9.385-4.249,13.479-5.732
			c4.135-1.402,7.781-2.443,10.859-3.026c3.02-0.805,5.498-0.892,7.139-1.16c1.654-0.212,2.537-0.323,2.537-0.323
			s-0.875,0.163-2.516,0.467c-1.625,0.363-4.07,0.588-7.029,1.56c-3.012,0.752-6.564,1.99-10.563,3.607
			c-3.959,1.697-8.365,3.752-12.951,6.407c-18.555,10.342-39.965,29.2-58.748,50.26c-13.264,14.683-25.43,30.29-35.613,44.343
			c8.684,8.889,16.861,18.474,24.447,28.754c1.707,2.313,3.361,4.646,4.982,6.994c54.828-14.21,82.9-46.671,97.213-74.682
			c18.652-36.506,17.236-71.439,17.16-72.909l-0.35-7.544c-0.102-2.159-1.74-3.933-3.885-4.206l-7.063-0.896
			c-8.578-1.084-16.734-1.595-24.469-1.595C814.445,283.263,778.111,324.164,759.49,360.604"/>
	</defs>
	<clipPath id="SVGID_17_">
		<use xlink:href="#SVGID_16_"  overflow="visible"/>
	</clipPath>
	
		<linearGradient id="SVGID_18_" gradientUnits="userSpaceOnUse" x1="-0.0146" y1="1092.7539" x2="0.9854" y2="1092.7539" gradientTransform="matrix(182.5488 0 0 -182.5488 739.6147 199845.0313)">
		<stop  offset="0" style="stop-color:#4AB16C"/>
		<stop  offset="1" style="stop-color:#009985"/>
	</linearGradient>
	<rect x="748.938" y="283.263" clip-path="url(#SVGID_17_)" fill="url(#SVGID_18_)" width="172.035" height="161.835"/>
</g>
<g>
	<defs>
		<path id="SVGID_19_" d="M721.619,535.688l-57.9,33.354c-4.633,2.67-6.256,8.582-3.637,13.251l42.793,76.279
			c3.449-0.2,6.971-0.452,10.506-0.768c40.826-3.658,51.822-12.707,54.748-17.767c5.555-15.717,4.23-33.253-4.008-48.109
			L735,539.409c-1.783-3.215-5.107-5.024-8.531-5.024C724.822,534.385,723.15,534.804,721.619,535.688"/>
	</defs>
	<clipPath id="SVGID_20_">
		<use xlink:href="#SVGID_19_"  overflow="visible"/>
	</clipPath>
	
		<linearGradient id="SVGID_21_" gradientUnits="userSpaceOnUse" x1="-0.0229" y1="1092.7559" x2="0.9771" y2="1092.7559" gradientTransform="matrix(112.6612 0 0 -112.6612 661.462 123707.7031)">
		<stop  offset="0" style="stop-color:#4AB16C"/>
		<stop  offset="1" style="stop-color:#009985"/>
	</linearGradient>
	<rect x="657.463" y="534.385" clip-path="url(#SVGID_20_)" fill="url(#SVGID_21_)" width="116.221" height="124.186"/>
</g>
<g>
	<defs>
		<path id="SVGID_22_" d="M656.482,648.407l-57.341,58.475c-4.769,4.862-4.674,12.688,0.214,17.433l58.102,56.417
			c1.428,1.388,3.82,0.372,3.82-1.62v-20.27h22.279c11.377,0,21.873-6.128,27.482-16.043l45.592-80.6
			c-10.633,3.821-24.682,6.494-42.26,8.063c-13.475,1.202-26.541,1.514-36.486,1.514c-10.338,0-17.301-0.337-17.855-0.364
			l0.313-6.248v-15.175c0-1.362-1.111-2.261-2.27-2.261C657.514,647.728,656.943,647.938,656.482,648.407"/>
	</defs>
	<clipPath id="SVGID_23_">
		<use xlink:href="#SVGID_22_"  overflow="visible"/>
	</clipPath>
	
		<linearGradient id="SVGID_24_" gradientUnits="userSpaceOnUse" x1="-0.0161" y1="1092.752" x2="0.9839" y2="1092.752" gradientTransform="matrix(161.0044 0 0 -161.0044 598.22 176652.7969)">
		<stop  offset="0" style="stop-color:#4AB16C"/>
		<stop  offset="1" style="stop-color:#009985"/>
	</linearGradient>
	<rect x="594.372" y="647.728" clip-path="url(#SVGID_23_)" fill="url(#SVGID_24_)" width="162.259" height="134.392"/>
</g>
<g>
	<defs>
		<path id="SVGID_25_" d="M472.129,545.484l-78.161,20.961c-1.923,0.515-2.283,3.091-0.575,4.116l17.358,10.413l-11.447,19.15
			c-5.844,9.779-5.989,21.949-0.379,31.865l45.598,80.593c2.191-11.102,7.119-24.549,14.806-40.466
			c12.018-24.878,26.33-46.396,26.933-47.299l5.185,3.474h0.001l12.999,7.8c1.73,1.036,3.845-0.551,3.337-2.506l-20.617-79.328
			c-1.438-5.531-6.415-9.193-11.86-9.193C474.257,545.064,473.191,545.2,472.129,545.484"/>
	</defs>
	<clipPath id="SVGID_26_">
		<use xlink:href="#SVGID_25_"  overflow="visible"/>
	</clipPath>
	
		<linearGradient id="SVGID_27_" gradientUnits="userSpaceOnUse" x1="-0.0229" y1="1092.7559" x2="0.9775" y2="1092.7559" gradientTransform="matrix(115.5637 0 0 -115.5637 394.888 126911.7813)">
		<stop  offset="0" style="stop-color:#4AB16C"/>
		<stop  offset="1" style="stop-color:#009985"/>
	</linearGradient>
	<rect x="391.685" y="545.064" clip-path="url(#SVGID_26_)" fill="url(#SVGID_27_)" width="116.607" height="167.519"/>
</g>
<g>
	<defs>
		<path id="SVGID_28_" d="M470.507,677.667c-17.841,36.972-15.742,51.073-12.911,56.187c10.605,12.849,26.301,20.719,43.257,21.269
			l59.933,1.949c5.437,0.176,9.966-4.139,10.062-9.589l1.182-66.903c0.094-5.354-4.135-9.788-9.478-9.935l-87.305-2.405
			C473.645,671.309,472.053,674.466,470.507,677.667"/>
	</defs>
	<clipPath id="SVGID_29_">
		<use xlink:href="#SVGID_28_"  overflow="visible"/>
	</clipPath>
	
		<linearGradient id="SVGID_30_" gradientUnits="userSpaceOnUse" x1="-0.0225" y1="1092.7549" x2="0.9775" y2="1092.7549" gradientTransform="matrix(116.315 0 0 -116.315 458.2973 127816.6172)">
		<stop  offset="0" style="stop-color:#4AB16C"/>
		<stop  offset="1" style="stop-color:#009985"/>
	</linearGradient>
	<rect x="452.666" y="668.239" clip-path="url(#SVGID_29_)" fill="url(#SVGID_30_)" width="119.458" height="89.008"/>
</g>
<g>
	<defs>
		<path id="SVGID_31_" d="M491.357,444.654l-31.549,51.09c-2.862,4.635-1.384,10.72,3.283,13.518l57.31,34.363
			c4.587,2.75,10.53,1.286,13.32-3.283l45.583-74.639c-1.858-2.92-3.795-5.877-5.797-8.813
			c-23.105-33.919-36.355-39.122-42.189-39.211C514.913,420.486,500.283,430.201,491.357,444.654"/>
	</defs>
	<clipPath id="SVGID_32_">
		<use xlink:href="#SVGID_31_"  overflow="visible"/>
	</clipPath>
	
		<linearGradient id="SVGID_33_" gradientUnits="userSpaceOnUse" x1="-0.022" y1="1092.751" x2="0.9785" y2="1092.751" gradientTransform="matrix(120.9556 0 0 -120.9556 460.9681 132656.2656)">
		<stop  offset="0" style="stop-color:#4AB16C"/>
		<stop  offset="1" style="stop-color:#009985"/>
	</linearGradient>
	<rect x="456.946" y="417.679" clip-path="url(#SVGID_32_)" fill="url(#SVGID_33_)" width="122.358" height="128.697"/>
</g>
<g>
	<defs>
		<path id="SVGID_34_" d="M583.879,449.946c15.542,22.834,27.031,45.988,27.513,46.963l-5.596,2.774l-13.221,7.404
			c-1.76,0.985-1.44,3.614,0.505,4.147l78.923,21.619c6.564,1.797,13.336-2.102,15.086-8.691l20.807-78.34
			c0.512-1.925-1.539-3.522-3.275-2.55l-17.66,9.89l-10.871-19.486c-5.549-9.948-16.01-16.138-27.385-16.206l-92.468-0.55
			C564.754,424.354,573.936,435.336,583.879,449.946"/>
	</defs>
	<clipPath id="SVGID_35_">
		<use xlink:href="#SVGID_34_"  overflow="visible"/>
	</clipPath>
	
		<linearGradient id="SVGID_36_" gradientUnits="userSpaceOnUse" x1="-0.0171" y1="1092.75" x2="0.9829" y2="1092.75" gradientTransform="matrix(151.7388 0 0 -151.7388 558.8633 166288.2969)">
		<stop  offset="0" style="stop-color:#4AB16C"/>
		<stop  offset="1" style="stop-color:#009985"/>
	</linearGradient>
	<rect x="556.237" y="416.92" clip-path="url(#SVGID_35_)" fill="url(#SVGID_36_)" width="152.171" height="117.73"/>
</g>
</svg>
